<!DOCTYPE svg PUBLIC "-//W3C//DTD SVG 1.1//EN" "http://www.w3.org/Graphics/SVG/1.1/DTD/svg11.dtd">
<!-- Uploaded to: SVG Repo, www.svgrepo.com, Transformed by: SVG Repo Mixer Tools -->
<svg version="1.1" id="Layer_1" xmlns="http://www.w3.org/2000/svg" xmlns:xlink="http://www.w3.org/1999/xlink" viewBox="-189.44 -189.44 890.88 890.88" xml:space="preserve" width="800px" height="800px" fill="#583400" stroke="#583400">
<g id="SVGRepo_bgCarrier" stroke-width="0" transform="translate(0,0), scale(1)">
<rect x="-189.44" y="-189.44" width="890.88" height="890.88" rx="445.44" fill="#C2779E" strokewidth="0"/>
</g>
<g id="SVGRepo_tracerCarrier" stroke-linecap="round" stroke-linejoin="round"/>
<g id="SVGRepo_iconCarrier"> <path style="fill:#FCCFEF;" d="M280.78,284.517c2.71-79.328,30.376-138.929,30.376-138.929H200.843 c0,0,27.668,59.601,30.376,138.929c7.255-4.315,15.726-6.8,24.78-6.8C265.054,277.716,273.524,280.203,280.78,284.517z"/> <g> <path style="fill:#BA82AA;" d="M187.789,79.121v26.334c0,37.672,30.539,68.211,68.211,68.211l0,0 c37.672,0,68.211-30.539,68.211-68.211V79.121H187.789z"/> <path style="fill:#BA82AA;" d="M95.216,59.845L95.216,59.845c0,28.705,23.27,51.974,51.974,51.974V7.871 C118.485,7.871,95.216,31.14,95.216,59.845z"/> <path style="fill:#BA82AA;" d="M230.566,321.65c-5.708,79.917-37.253,139.478-5.079,170.308c16.935,16.228,44.093,16.228,61.029,0 c32.173-30.83,0.629-90.391-5.079-170.308c-0.91-12.737-1.064-25.158-0.655-37.132c-7.255-4.315-15.726-6.801-24.78-6.801 s-17.525,2.485-24.78,6.801C231.629,296.492,231.476,308.913,230.566,321.65z"/> </g> <path style="opacity:0.1;enable-background:new ;" d="M249.623,491.957c-32.173-30.83-0.629-90.391,5.079-170.308 c0.91-12.737,1.064-25.158,0.655-37.132c-2.71-79.328-30.376-138.929-30.376-138.929h0.014 c-8.212-11.263-13.069-25.128-13.069-40.133V79.121h-24.137v26.334c0,15.006,4.857,28.871,13.069,40.133h-0.014 c0,0,27.668,59.601,30.376,138.929c0.409,11.975,0.255,24.396-0.655,37.132c-5.708,79.917-37.253,139.479-5.079,170.308 c11.591,11.106,27.97,14.607,42.583,10.51C261.331,500.58,254.968,497.079,249.623,491.957z"/> <rect x="147.187" y="7.871" style="fill:#9090B3;" width="217.626" height="103.949"/> <path style="fill:#BA82AA;" d="M416.786,59.845L416.786,59.845c0-28.705-23.27-51.974-51.974-51.974v103.949 C393.516,111.819,416.786,88.55,416.786,59.845z"/> <rect x="147.187" y="34.643" style="fill:#AFAFD9;" width="217.626" height="50.405"/> <polygon style="fill:#9090B3;" points="147.19,51.973 147.189,51.973 147.189,67.716 364.811,67.716 364.811,67.716 364.811,51.974 "/> <path style="opacity:0.1;enable-background:new ;" d="M160.282,59.845c0-28.705,23.27-51.974,51.974-51.974H147.19 c-28.705,0-51.974,23.27-51.974,51.974s23.27,51.974,51.974,51.974h65.066C183.551,111.819,160.282,88.55,160.282,59.845z"/> <path d="M292.808,496.811c23.338-23.338,16.384-58.369,7.607-102.58c-4.324-21.779-9.224-46.466-11.129-73.143 c-0.844-11.806-1.059-24.018-0.64-36.302c0.503-14.698,1.928-29.771,4.239-44.804c0.66-4.296-2.287-8.315-6.583-8.975 c-4.298-0.661-8.315,2.289-8.975,6.583c-1.8,11.709-3.084,23.447-3.836,35.032c-0.106-0.035-0.214-0.063-0.32-0.098 c-5.541-1.778-11.352-2.674-17.17-2.68c-5.794,0-11.648,0.897-17.165,2.678c-0.107,0.034-0.215,0.063-0.322,0.098 c-2.693-41.841-11.733-77.244-19.289-100.561c0.411,1.269,6.238,3.096,7.491,3.617c2.844,1.185,5.76,2.194,8.728,3.023 c6.666,1.863,13.633,2.839,20.557,2.835c6.305,0,12.638-0.794,18.751-2.337c3.224-0.813,6.394-1.841,9.483-3.074 c1.44-0.575,8.118-2.614,8.591-4.079c-3.014,9.327-6.273,20.599-9.282,33.466c-0.991,4.232,1.638,8.467,5.872,9.457 c4.231,0.991,8.465-1.638,9.457-5.872c7.807-33.376,17.53-55.938,19.178-59.644c6.298-8.888,10.634-19.051,12.674-29.763h34.088 c15.985,0,31.013-6.225,42.317-17.528s17.528-26.332,17.528-42.317C424.656,26.847,397.81,0,364.811,0H147.19 c-15.985,0-31.014,6.225-42.317,17.528C93.57,28.831,87.345,43.859,87.345,59.845c0,32.998,26.846,59.845,59.845,59.845h34.078 c2.037,10.753,6.379,20.878,12.682,29.755c2.701,6.089,26.921,62.599,29.406,135.34c0.42,12.277,0.205,24.491-0.64,36.303 c-1.905,26.675-6.787,51.266-11.094,72.963c-0.846,4.264,1.924,8.406,6.188,9.252c4.264,0.847,8.407-1.924,9.253-6.188 c4.396-22.149,9.38-47.253,11.355-74.906c0.769-10.761,1.039-21.833,0.807-32.982c-0.006-0.292,2.876-1.178,3.161-1.277 c1.282-0.452,2.588-0.842,3.909-1.165c3.167-0.776,6.444-1.198,9.706-1.198c3.14,0,6.297,0.381,9.354,1.094 c1.48,0.345,2.944,0.762,4.375,1.274c0.686,0.246,1.364,0.514,2.033,0.807c0.873,0.381,0.999,0.433,0.997,1.418 c-0.006,3.158-0.076,6.315-0.051,9.473c0.046,6.235,0.25,12.469,0.623,18.693c0.078,1.289,0.162,2.576,0.254,3.864 c1.975,27.657,6.978,52.855,11.391,75.086c8.254,41.574,14.213,71.616-3.906,88.978c-13.823,13.246-36.314,13.246-50.138,0 c-11.609-11.124-14.311-27.359-9.637-57.905c0.658-4.298-2.292-8.313-6.59-8.971c-4.298-0.658-8.313,2.293-8.971,6.59 c-4.016,26.246-5.064,53.093,14.306,71.653c9.663,9.26,22.434,14.36,35.96,14.36c13.526,0,26.297-5.099,35.961-14.36 C292.248,497.365,292.53,497.089,292.808,496.811z M304.8,140.915c-0.009,0.013-0.021,0.024-0.03,0.038 c-11.146,15.428-29.756,24.844-48.769,24.844c-19.064,0-37.564-9.414-48.768-24.844c-0.031-0.044-0.07-0.081-0.103-0.124 c-4.6-6.345-7.924-13.513-9.767-21.137h106.285h10.987C312.777,127.326,309.426,134.544,304.8,140.915z M408.915,59.845 c0,11.78-4.587,22.855-12.918,31.186c-6.444,6.444-14.53,10.648-23.315,12.222V16.445C393.258,20.168,408.915,38.214,408.915,59.845 z M356.94,67.716v9.463H155.06v-9.463H356.94z M155.06,51.974v-6.83v-2.632H356.94v9.463H155.06V51.974z M155.061,15.742h201.881 v11.029H155.061V15.742z M103.086,59.845c0-11.78,4.587-22.855,12.918-31.186c6.444-6.444,14.53-10.648,23.315-12.222v86.807 C118.741,99.524,103.086,81.479,103.086,59.845z M155.06,103.949V93.696v-0.776H356.94v11.028h-33.028c0,0-0.004,0-0.006,0h-135.81 l-0.007,0.001L155.06,103.949z"/> </g>
</svg>