<!DOCTYPE svg PUBLIC "-//W3C//DTD SVG 1.1//EN" "http://www.w3.org/Graphics/SVG/1.1/DTD/svg11.dtd">
<!-- Uploaded to: SVG Repo, www.svgrepo.com, Transformed by: SVG Repo Mixer Tools -->
<svg height="800px" width="800px" version="1.1" id="Layer_1" xmlns="http://www.w3.org/2000/svg" xmlns:xlink="http://www.w3.org/1999/xlink" viewBox="-168.96 -168.96 849.92 849.92" xml:space="preserve" fill="#000000">
<g id="SVGRepo_bgCarrier" stroke-width="0">
<rect x="-168.96" y="-168.96" width="849.92" height="849.92" rx="424.96" fill="#C2779E" strokewidth="0"/>
</g>
<g id="SVGRepo_tracerCarrier" stroke-linecap="round" stroke-linejoin="round"/>
<g id="SVGRepo_iconCarrier"> <path style="fill:#FF648D;" d="M512,237.455l-90.165-94.674C377.244,95.96,303.266,93.783,256,137.898l0,0 C208.733,93.783,134.756,95.96,90.167,142.78L0,237.455l9.478,18.323c103.473,200.047,389.572,200.047,493.045,0L512,237.455z"/> <g> <path style="fill:#FD387E;" d="M512,237.455l-90.165-94.674C377.244,95.96,303.266,93.783,256,137.898l0,0 c0,50.206,0,216.05,0,267.914c97.394,0,194.786-50.012,246.522-150.036L512,237.455z"/> <path style="fill:#FD387E;" d="M398.884,220.254c-32.505,0-48.406-6.36-65.241-13.094c-18.143-7.257-38.706-15.482-77.643-15.482 s-59.5,8.225-77.643,15.482c-16.835,6.734-32.736,13.094-65.241,13.094H16.382L0,237.455l8.375,16.19H119.07 c4.746,0,13.796,7.089,22.547,13.943c21.967,17.207,55.164,43.209,114.383,43.209s92.416-26.003,114.384-43.209 c8.751-6.855,17.801-13.943,22.547-13.943h110.695l8.373-16.19l-16.382-17.201H398.884z"/> </g> <g> <path style="fill:#BB2A5C;" d="M398.884,220.254c-32.505,0-48.406-6.36-65.241-13.094c-18.143-7.257-38.706-15.482-77.643-15.482 c0,49.854,0,73.228,0,119.121c59.219,0,92.416-26.003,114.384-43.209c8.751-6.855,17.801-13.943,22.547-13.943h110.696L512,237.455 l-16.382-17.201H398.884z"/> <path style="fill:#BB2A5C;" d="M256,277.406c-42.92,0-67.91-16.209-87.45-31.176c8.298-2.504,15.422-5.354,22.209-8.068 c16.835-6.734,32.736-13.094,65.241-13.094s48.406,6.36,65.241,13.094c6.786,2.714,13.911,5.564,22.209,8.068 C323.91,261.198,298.92,277.406,256,277.406z"/> </g> <path style="fill:#801E44;" d="M256,277.406c0-21.406,0-25.858,0-52.339c32.505,0,48.406,6.36,65.241,13.094 c6.786,2.714,13.911,5.564,22.209,8.068C323.91,261.198,298.92,277.406,256,277.406z"/> </g>
</svg>