<!DOCTYPE svg PUBLIC "-//W3C//DTD SVG 1.1//EN" "http://www.w3.org/Graphics/SVG/1.1/DTD/svg11.dtd">
<!-- Uploaded to: SVG Repo, www.svgrepo.com, Transformed by: SVG Repo Mixer Tools -->
<svg width="800px" height="800px" viewBox="-9.36 -9.36 54.72 54.72" xmlns="http://www.w3.org/2000/svg" xmlns:xlink="http://www.w3.org/1999/xlink" aria-hidden="true" role="img" class="iconify iconify--twemoji" preserveAspectRatio="xMidYMid meet" fill="#000000">
<g id="SVGRepo_bgCarrier" stroke-width="0">
<rect x="-9.36" y="-9.36" width="54.72" height="54.72" rx="27.36" fill="#C2779E" strokewidth="0"/>
</g>
<g id="SVGRepo_tracerCarrier" stroke-linecap="round" stroke-linejoin="round"/>
<g id="SVGRepo_iconCarrier">
<path fill="#EA596E" d="M16.522.232c2.246 0 4.832 1.375 6.703 3.249C25.098 5.355 27 7.408 27 9.479v17.204l-15.974.031V9.582c-.093-1.506 1.075-9.35 5.496-9.35"/>
<path fill="#DD2E44" d="M19 11.378V28c0 1.104.896 0 2 0v2a2 2 0 0 0 2-2V12.333c-1.258-.104-2.65-.262-4-.955z"/>
<path fill="#F4ABBA" d="M22.072 3.455c2.664 2.391 4.277 5.236 2.961 6.699c-1.314 1.463-5.06.991-7.721-1.4c-2.661-2.39-3.753-5.516-2.439-6.979c1.316-1.463 4.538-.712 7.199 1.68"/>
<path fill="#FFCC4D" d="M30 34a2 2 0 0 1-2 2H10a2 2 0 0 1-2-2v-6a2 2 0 0 1 2-2h18a2 2 0 0 1 2 2v6z"/>
<path fill="#FFAC33" d="M31 34a2 2 0 0 1-2 2H9a2 2 0 0 1-2-2v-1a2 2 0 0 1 2-2h20a2 2 0 0 1 2 2v1z"/>
</g>
</svg>